<?xml version="1.0" encoding="utf-8"?>
<!-- Generator: Adobe Illustrator 25.2.1, SVG Export Plug-In . SVG Version: 6.00 Build 0)  -->
<svg version="1.1" id="Camada_1" xmlns="http://www.w3.org/2000/svg" xmlns:xlink="http://www.w3.org/1999/xlink" x="0px" y="0px"
	 viewBox="0 0 4096 2357" style="enable-background:new 0 0 4096 2357;" xml:space="preserve">
<style type="text/css">
	.st0{fill:none;}
	.st1{fill:#D6A77A;}
	.st2{fill:#FFFFFF;}
</style>
<path class="st0" d="M968.86,2057.53c0,3.24,0,6.18,0,9c38.54-13.12,62.25-20.89,105.08-34.54c40.6-12.93,73.75-56.71,73.75-98.2
	c0-4.41-0.51-8.59-1.25-12.64C1098.33,1979.1,1037.76,2026.77,968.86,2057.53z"/>
<path class="st0" d="M1763.64,1965.25h-9.21v90.89c5.05,0.29,8.62,0.29,10.09,0.29c10.69,0,18.12-4.75,22.57-14.26
	c4.46-9.51,6.54-20.5,6.54-32.97C1793.65,1979.81,1783.54,1965.25,1763.64,1965.25z"/>
<path class="st1" d="M2048.39,960.88c71.82,0,139.84-16.25,200.63-45.21c610.04,20.42,1218.2,133.17,1807.49,338.33
	c0-24.38,0-36.57,0-60.96c-559.97-194.95-1136.96-306.42-1716.42-334.56c7.12-5.71,14.12-11.56,20.9-17.67
	c572.44,29.79,1142.29,140.96,1695.53,333.57c0-12.19,0-18.29,0-30.48c-543.82-189.33-1103.7-299.91-1666.3-331.92
	c77.7-83.42,125.32-195.25,125.32-318.25c0-257.99-209.14-467.14-467.13-467.14c-257.99,0-467.14,209.14-467.14,467.14
	c0,122.91,47.54,234.66,125.14,318.06C1143.86,843.49,584.01,953.75,40.17,1142.73c0,12.19,0,18.29,0,30.48
	C593.42,980.95,1163.24,870.12,1735.6,840.65c6.77,6.11,13.77,11.97,20.9,17.68C1177.11,886.15,600.15,997.27,40.17,1191.86
	c0,24.38,0,36.57,0,60.95c589.31-204.78,1197.42-317.16,1807.36-337.26C1908.38,944.59,1976.48,960.88,2048.39,960.88z
	 M1609.88,493.74c0-242.18,196.33-438.51,438.51-438.51c242.18,0,438.51,196.33,438.51,438.51c0,242.18-196.33,438.51-438.51,438.51
	C1806.21,932.25,1609.88,735.92,1609.88,493.74z"/>
<path class="st1" d="M2048.39,915.45c232.91,0,421.71-188.81,421.71-421.71c0-232.91-188.81-421.71-421.71-421.71
	c-232.91,0-421.71,188.81-421.71,421.71C1626.68,726.65,1815.48,915.45,2048.39,915.45z M1678.92,493.74
	c0-204.05,165.42-369.47,369.47-369.47c204.05,0,369.47,165.42,369.47,369.47c0,204.05-165.42,369.47-369.47,369.47
	C1844.34,863.21,1678.92,697.79,1678.92,493.74z"/>
<g>
	<path class="st2" d="M1880.67,696.24l-28.21-40.47c-1.12,0.84-2.2,1.59-3.31,2.39l28.19,40.43
		C1878.45,697.8,1879.55,697.07,1880.67,696.24z"/>
	<path class="st2" d="M1840.97,663.94l28.2,40.44c1.04-0.7,2.1-1.5,3.14-2.23l-28.2-40.44
		C1843.08,662.44,1842,663.25,1840.97,663.94z"/>
	<path class="st2" d="M1819.4,676.62c-12.23,5.99-17.28,20.74-11.3,32.97c5.98,12.22,20.74,17.28,32.96,11.3
		c7.46-3.65,15.14-8.16,22.92-13.16l-28.22-40.47C1830.09,670.85,1824.57,674.09,1819.4,676.62z M1829.81,705.18
		c-2.14,2.38-5.8,2.58-8.18,0.44c-2.38-2.14-2.58-5.8-0.44-8.18c2.14-2.38,5.8-2.58,8.18-0.44
		C1831.75,699.14,1831.95,702.8,1829.81,705.18z"/>
	<path class="st2" d="M1949.66,444.66c2.99-2.14,3.68-6.29,1.54-9.27l-120.04-167.97c-2.14-2.99-6.29-3.68-9.27-1.54l-20.68,14.78
		l127.77,178.78L1949.66,444.66z"/>
	<path class="st2" d="M1845.61,259.87l120.04,167.97c2.73,3.82,1.84,9.16-1.99,11.89l-15.97,11.41
		c20.61-4.98,37.88,11.67,48.75,26.46c-32.99,70.41-90.51,136.55-139.13,174.38l28.25,40.52c22.21-17.03,44.85-38.3,66.27-62.18
		c27.72-30.89,53.32-65.97,73.31-101.2c5.93,7.67,12.32,14.4,17.31,19.29c-0.56,0.48-1.07,0.96-1.65,1.45c0,0-4.03,2.95-1.71,6.77
		c2.32,3.82,6.31,0,6.31,0s1.15-0.97,2.99-2.63c1.84,1.66,2.99,2.63,2.99,2.63s3.99,3.82,6.31,0c2.32-3.82-1.71-6.77-1.71-6.77
		c-0.58-0.48-1.08-0.97-1.65-1.45c4.99-4.89,11.38-11.62,17.31-19.29c19.99,35.23,45.6,70.31,73.31,101.2
		c21.42,23.88,44.06,45.15,66.27,62.18l28.25-40.52c-48.62-37.83-106.14-103.97-139.13-174.38c10.87-14.79,28.13-31.44,48.74-26.46
		l-15.97-11.41c-3.83-2.73-4.72-8.07-1.99-11.89l120.04-167.97c2.73-3.82,8.07-4.71,11.9-1.98l5.7,4.07l-9.17-8.08
		c-3.13-2.75-7.95-2.2-10.37,1.19l-130.29,182.31l-23.48,32.86c-7.08-7.63-18.43-10.29-28.36-5.67
		c-12.35,5.74-17.7,20.39-11.97,32.73c3.64,7.84,7.73,15.73,12.01,23.63c-4.57,6.86-10.65,14.4-18.75,22.13
		c-8.1-7.72-14.18-15.26-18.75-22.13c4.28-7.9,8.37-15.8,12.01-23.63c5.74-12.34,0.38-26.99-11.97-32.73
		c-9.93-4.62-21.28-1.96-28.36,5.67l-23.48-32.86l-130.3-182.31c-2.42-3.39-7.24-3.94-10.37-1.19l-9.17,8.08l5.7-4.07
		C1837.53,255.16,1842.88,256.04,1845.61,259.87z M2072.88,476.92c2.38-2.14,6.05-1.94,8.18,0.44c2.14,2.38,1.94,6.05-0.44,8.18
		c-2.38,2.14-6.05,1.94-8.18-0.44C2070.3,482.72,2070.5,479.05,2072.88,476.92z M2015.71,477.36c2.14-2.38,5.8-2.58,8.18-0.44
		c2.38,2.14,2.58,5.8,0.44,8.18c-2.14,2.38-5.8,2.58-8.18,0.44C2013.78,483.41,2013.58,479.74,2015.71,477.36z"/>
	<path class="st2" d="M2216.11,696.24c1.12,0.83,2.22,1.56,3.33,2.36l28.19-40.43c-1.11-0.8-2.19-1.55-3.31-2.39L2216.11,696.24z"/>
	<path class="st2" d="M2255.81,663.94c-1.03-0.69-2.1-1.5-3.15-2.22l-28.2,40.44c1.05,0.72,2.1,1.52,3.14,2.23L2255.81,663.94z"/>
	<path class="st2" d="M2261.01,667.25l-28.22,40.47c7.78,5,15.47,9.51,22.92,13.16c12.22,5.98,26.98,0.92,32.96-11.3
		c5.99-12.23,0.93-26.98-11.3-32.97C2272.21,674.09,2266.69,670.85,2261.01,667.25z M2275.15,705.63c-2.38,2.14-6.05,1.94-8.18-0.44
		c-2.14-2.38-1.94-6.05,0.44-8.18c2.38-2.14,6.05-1.94,8.18,0.44C2277.73,699.83,2277.53,703.49,2275.15,705.63z"/>
	<path class="st2" d="M2265.62,267.42l-120.04,167.97c-2.14,2.99-1.44,7.14,1.54,9.27l20.68,14.78l127.77-178.78l-20.68-14.78
		C2271.91,263.75,2267.76,264.44,2265.62,267.42z"/>
</g>
<path class="st1" d="M972.39,2091.52c-28.67,0-52.48,20.66-57.46,47.89H453.66v21.15h461.27c4.98,27.23,28.79,47.89,57.46,47.89
	c32.29,0,58.47-26.18,58.47-58.47C1030.86,2117.69,1004.68,2091.52,972.39,2091.52z"/>
<path class="st1" d="M3188.29,2091.52c-32.29,0-58.47,26.18-58.47,58.47c0,32.29,26.18,58.47,58.47,58.47
	c28.67,0,52.48-20.66,57.46-47.89h461.27v-21.15h-461.27C3240.77,2112.17,3216.96,2091.52,3188.29,2091.52z"/>
<g>
	<g>
		<path class="st0" d="M2044.94,1682.04c0,3.46,0,6.61,0,9.63c41.25-14.04,66.63-22.36,112.47-36.97
			c43.46-13.84,78.93-60.7,78.93-105.11c0-4.72-0.54-9.19-1.34-13.53C2183.52,1598.1,2118.7,1649.12,2044.94,1682.04z"/>
		<path class="st0" d="M2044.94,1062.78c0,165.63,0,331.26,0,496.89c107.84-63.38,186.58-193.26,191.4-314.97
			c3.57-90.13-56.47-163.33-136.5-184.76C2081.91,1058.52,2063.48,1059.35,2044.94,1062.78z"/>
		<path class="st1" d="M2044.94,1682.04c73.75-32.92,138.58-83.95,190.06-145.97c-1.8-9.82-5.47-18.63-11.08-25.83
			c-47.44,63.61-122.32,125.92-194.55,159.34c0,10.96,0,16.44,0,27.41c5.48-1.87,10.61-3.62,15.56-5.31
			C2044.94,1688.65,2044.94,1685.51,2044.94,1682.04z"/>
		<path class="st1" d="M2029.38,1568.3c5.26-2.71,10.43-5.62,15.56-8.64c0-165.63,0-331.26,0-496.89
			c18.54-3.43,36.96-4.26,54.9-2.84c-22.25-5.96-46.05-7.93-70.46-5.13C2029.38,1225.97,2029.38,1397.14,2029.38,1568.3z"/>
		<path class="st1" d="M2325.65,1468.09c5.63,16.11,8.78,33.76,8.94,52.48c0.89,103.76-84.22,199.55-177.17,234.03
			c-69.81,22.24-105.2,34.06-173.45,58c5.84,7.52,16.11,10.34,27.92,6.27c70.47-24.33,105.85-35.96,176.83-58.17
			c90.38-31.09,159.91-117.92,161.63-212.67C2350.89,1517.25,2341.75,1489.43,2325.65,1468.09z"/>
		<path class="st1" d="M2286.33,1411.16c6.69,5.27,12.6,11.4,17.96,18.03c29.05-59.45,45.64-123.5,46.04-186.07
			c0.35-53.78-13.6-101.65-37.72-141.06c14.33,33.76,22.24,71.98,21.97,113.6C2334.17,1279.15,2317.92,1346.74,2286.33,1411.16z"/>
		<path class="st2" d="M2157.41,1738.62c90.31-31.6,159.71-118.69,161.44-213.52c0.83-45.56-19.52-84.6-52.37-105.58
			c33.08-63.19,51.92-132.21,52.37-199.33c1.22-184.64-165.28-299.44-338.05-237.33c-18.04,6.48-32.98,26.88-32.98,45.64
			c0,248.98,0,497.95,0,746.93c0,18.76,14.75,28.69,32.98,22.29C2051.19,1773.03,2086.51,1761.21,2157.41,1738.62z M2252.04,1239.95
			c-5.93,141.3-106.02,293.27-238.2,352.38c0-183.62,0-367.24,0-550.87C2137.85,1017.8,2257.54,1108.69,2252.04,1239.95z
			 M2013.83,1660.73c84.43-38.19,157.08-100.03,211.4-174.81c16.87,12.62,26.8,33.61,26.8,58.94c0,53.21-42.54,109.25-94.62,125.84
			c-57.6,18.35-86.32,27.87-143.58,47.61C2013.83,1695.27,2013.83,1683.76,2013.83,1660.73z"/>
	</g>
	<g>
		<path class="st0" d="M3389.46,1266.45c-38.89,144.69-77.78,289.38-116.67,434.07c108.24-16.02,208.24-103.26,239.18-205.71
			c25.83-85.5-14.93-174.43-86.87-219.42C3413.8,1271.34,3401.93,1268.27,3389.46,1266.45z"/>
		<path class="st1" d="M3389.46,1266.45c12.46,1.82,24.34,4.89,35.64,8.95c-14.57-9.11-30.39-16.46-47.23-21.57
			c-40.19,149.52-80.37,299.03-120.56,448.55c5.18-0.43,10.33-1.09,15.48-1.85C3311.68,1555.83,3350.57,1411.14,3389.46,1266.45z"/>
		<path class="st1" d="M3345.75,1767.98c10.27,5.32,19.57,10.15,28.27,14.69c110.51-40.46,205.43-135.17,236.48-248.03
			c13.23-48.11,12.67-95.82,1.07-139.47c4.45,35.32,2.1,72.45-8.17,109.8C3570.04,1626.3,3465.05,1729.26,3345.75,1767.98z"/>
		<path class="st1" d="M3469.25,1940.93c12.35,1.44,25.93-4.24,33.89-15.29c9.29-12.89,7.75-28.71-2.81-37.62
			c-1.49,4.44-3.7,8.82-6.7,12.99c-11.44,15.9-31.01,24.74-49.86,22.65c-5.79-0.64-11.19-2.31-16.05-4.94
			c-66.09-36.02-133.06-70.82-200.54-104.17c-4.72,17.55-7.07,26.32-11.79,43.87c-6.22,23.12-30.37,40.72-54.76,40.68
			c3.25,8.77,11.5,15.05,22.73,15.79c17.27,1.14,34.83-11.13,39.23-27.52c6.93-25.78,10.39-38.67,17.32-64.44
			c73.4,37.3,146.03,75.41,218.45,114.59C3461.73,1939.36,3465.42,1940.49,3469.25,1940.93z"/>
		<path class="st2" d="M3217.99,1792.97c73.45,36.89,146.13,74.59,218.61,113.36c3.39,1.84,7.08,2.94,10.91,3.37
			c12.36,1.37,25.95-4.37,33.92-15.44c10.43-14.49,7.28-32.67-7.04-40.52c-66.54-36.5-99.9-54.15-166.77-88.25
			c128.87-29.43,245.94-134.26,281.17-262.23c44.75-162.55-67.4-320.28-236.05-329.95c-17.22-0.99-34.87,11.46-39.27,27.85
			c-58.45,217.49-116.91,434.97-175.36,652.46c-4.4,16.39,6.04,30.44,23.32,31.49c17.28,1.05,34.85-11.29,39.25-27.68
			C3207.6,1831.63,3211.07,1818.75,3217.99,1792.97z M3367.56,1236.51c121.49,17.07,190.34,147.22,159.06,259.83
			c-34.05,122.55-160.86,218.38-288.39,221.36C3281.34,1557.3,3324.45,1396.9,3367.56,1236.51z"/>
	</g>
	<g>
		<path class="st1" d="M2527.8,1654.72c-38.3-3.15-57.46-4.56-95.81-7.07c-1.03,8.5-1.55,12.74-2.59,21.24
			c4.82,0.35,9.64,0.74,14.46,1.1c0.28-2.27,0.57-4.64,0.88-7.19c44.13,3,66.18,4.71,110.24,8.55
			c16.96,1.48,32.35-10.73,34.38-27.38c1.32-10.82-3.39-20.79-11.47-26.89C2573.57,1640.08,2551.75,1656.69,2527.8,1654.72z"/>
		<path class="st1" d="M2716.55,1768.65c1.32-10.82-3.38-20.93-11.43-27.25c-4.3,22.96-26.07,39.08-49.96,36.52
			c-92.75-9.94-185.74-17.6-278.87-22.98c4.41,8.8,13.3,15.04,24.28,15.72c94.08,5.87,188.01,14.08,281.68,24.6
			C2699.18,1797.16,2714.53,1785.29,2716.55,1768.65z"/>
		<path class="st2" d="M2691.2,1736.97c2.03-16.65-10.04-31.69-26.97-33.51c-83.51-8.95-167.21-16.06-251.03-21.32
			c2.42-19.84,3.62-29.76,6.04-49.59c44.15,2.77,66.21,4.37,110.29,7.99c16.97,1.4,32.36-10.88,34.39-27.53
			c2.03-16.65-10.08-31.36-27.05-32.75c-44.08-3.62-66.14-5.22-110.29-7.99c20.01-164.21,40.01-328.42,60.02-492.63
			c83.82,5.26,167.53,12.37,251.03,21.32c16.93,1.81,32.29-10.12,34.31-26.77s-10.04-31.69-26.97-33.51
			c-93.73-10.05-187.7-17.77-281.82-23.17c-17-0.97-32.44,11.81-34.47,28.46c-26.92,220.93-53.83,441.86-80.75,662.79
			c-2.03,16.65,10.12,30.85,27.12,31.82c94.11,5.4,188.09,13.12,281.82,23.17C2673.82,1765.56,2689.17,1753.62,2691.2,1736.97z"/>
	</g>
	<g>
		<path class="st0" d="M3641.17,1908.83c101.59-2.24,199.44-86.55,235.48-207.94c31.34-105.54,8.21-213.09-53.5-277.05
			c-10.12-7.34-20.88-13.8-32.3-19.14L3641.17,1908.83z"/>
		<path class="st1" d="M3627.03,1908.67c4.72,0.25,9.43,0.26,14.14,0.16l149.68-504.13c11.42,5.34,22.18,11.8,32.3,19.14
			c-12.56-13.01-26.67-24.27-42.29-33.28L3627.03,1908.67z"/>
		<path class="st1" d="M3563.25,1983.68c2.56,9.3,9.64,17.13,19.57,20.08c155.45,46.15,326.2-65.42,380.63-248.74
			c18.65-62.83,21.25-126.05,10.35-183.88c4.52,49.56-0.19,101.88-15.65,153.94C3901.9,1914.56,3725.18,2029.96,3563.25,1983.68z"/>
		<path class="st2" d="M3564.49,1969.95c155.45,46.15,326.2-65.42,380.63-248.74s-27.77-369.99-183.22-416.14
			c-15.31-4.54-31.4,4.18-35.94,19.49L3545,1934.01C3540.46,1949.31,3549.18,1965.41,3564.49,1969.95z M3889.68,1704.76
			c-41.94,141.26-163.55,232.28-280.39,215.84l163.21-549.72C3879.39,1420.86,3931.63,1563.49,3889.68,1704.76z"/>
	</g>
	<g>
		<path class="st1" d="M1064.91,1883.21c7.75,7.48,19.01,10.97,30.23,8.13c17.25-4.37,27.69-21.88,23.32-39.13l-173.83-686.64
			c-2.82-11.16-11.18-19.38-21.37-22.68l173.07,683.66C1102.49,1850.89,1088.49,1875.63,1064.91,1883.21z"/>
		<path class="st2" d="M1058.32,1869.4c17.25-4.37,27.69-21.88,23.32-39.13l-173.83-686.64c-4.37-17.25-21.88-27.69-39.13-23.32
			c-17.25,4.37-27.69,21.88-23.32,39.13l173.83,686.64C1023.56,1863.33,1041.08,1873.77,1058.32,1869.4z"/>
	</g>
	<g>
		<path class="st1" d="M548.79,2009.63c-31.5,12.4-64.15,18.55-96.87,19.11c43.11,4.95,86.79,0.06,128.37-16.31
			c15.45-6.08,23.05-23.54,16.96-38.99c-3.95-10.05-12.73-16.68-22.63-18.49C581.73,1976.95,570.6,2001.04,548.79,2009.63z"/>
		<g>
			<path class="st1" d="M306.6,1394.41c-118.81,46.77-168.42,204.36-110.57,351.3c21.04,53.45,53.48,98.18,91.92,131.28
				c-28.07-30.59-51.7-67.73-68.4-110.15c-60.7-154.19-7.52-320.01,118.55-369.64c15.45-6.08,23.05-23.54,16.96-38.99
				c-3.95-10.05-12.73-16.68-22.63-18.49C339.53,1361.73,328.4,1385.83,306.6,1394.41z"/>
			<path class="st2" d="M543.61,1996.47c15.45-6.08,23.05-23.54,16.96-38.99s-23.54-23.05-38.99-16.96
				c-126.07,49.63-278.02-35.43-338.72-189.62c-60.7-154.19-7.52-320.01,118.55-369.64c15.45-6.08,23.05-23.54,16.96-38.99
				c-6.08-15.45-23.54-23.05-38.99-16.96c-156.92,61.78-225.33,262.58-152.48,447.62S386.69,2058.24,543.61,1996.47z"/>
		</g>
	</g>
	<g>
		<path class="st1" d="M1459.45,1822.73c-35.21,8.7-70.75,10.59-105.57,6.54c45.08,11.37,92.15,12.38,138.62,0.9
			c17.27-4.27,27.81-21.72,23.54-39c-2.77-11.23-11.15-19.52-21.4-22.84C1499.06,1792.71,1483.82,1816.71,1459.45,1822.73z"/>
		<g>
			<path class="st1" d="M1289.57,1135.11c-132.8,32.81-207.83,193.11-167.25,357.33c14.76,59.74,42.86,111.84,78.97,152.44
				c-25.46-36.46-45.29-79.25-57-126.66c-42.58-172.34,37.42-340.86,178.33-375.68c17.27-4.27,27.81-21.72,23.54-39
				c-2.77-11.23-11.15-19.52-21.4-22.84C1329.17,1105.09,1313.94,1129.09,1289.57,1135.11z"/>
			<path class="st2" d="M1455.82,1808.03c17.27-4.27,27.81-21.72,23.54-39c-4.27-17.27-21.73-27.81-39-23.54
				c-140.91,34.81-290.18-77.07-332.76-249.41c-42.58-172.34,37.42-340.86,178.33-375.68c17.27-4.27,27.81-21.72,23.54-39
				c-4.27-17.27-21.73-27.81-39-23.54c-175.39,43.33-276.52,246.84-225.42,453.67C1096.16,1718.35,1280.42,1851.36,1455.82,1808.03z
				"/>
		</g>
	</g>
	<g>
		<path class="st1" d="M945.94,1896.44l-264.35,82.55c7.71,6.59,18.49,9.26,28.89,6.01l267.13-83.42
			c16.09-5.02,25.05-22.13,20.03-38.22c-3.27-10.46-11.66-17.82-21.54-20.37C981.67,1865.78,968.64,1889.35,945.94,1896.44z"/>
		<path class="st1" d="M708.58,1876.56l-178.06-570.21c-3.25-10.4-11.57-17.75-21.38-20.34l185.75,594.83L708.58,1876.56z"/>
		<path class="st2" d="M674.53,1966.16l267.13-83.42c16.09-5.02,25.05-22.13,20.03-38.22c-5.02-16.09-22.13-25.05-38.22-20.03
			l-238.01,74.32l-190.9-611.31c-5.02-16.09-22.13-25.05-38.22-20.03s-25.05,22.13-20.03,38.22l199.99,640.43
			C641.33,1962.21,658.44,1971.18,674.53,1966.16z"/>
	</g>
	<g>
		<path class="st1" d="M1875.43,1787.47c-6.07,0.64-12.13,0.12-18.04-1.54l-242.85-68.13l5.06,48.15
			c2.67,25.38-15.01,48.24-39.83,52.44c6.72,8.65,17.54,13.8,29.23,12.57c17.99-1.89,31.03-18,29.14-35.99l-7.44-70.72l264.7,74.26
			c4.11,1.15,8.25,1.47,12.26,1.05c12.94-1.36,24.38-10.43,28.11-23.73c4.35-15.51-3.27-31.49-17.29-38.25c0.2,5-0.35,10.05-1.74,15
			C1911.4,1771.7,1895.17,1785.39,1875.43,1787.47z"/>
		<path class="st1" d="M1616.55,1589.58l-53.7-510.65c-1.22-11.63-8.43-21.12-18.21-25.91l56.96,541.7
			C1606.67,1593.17,1611.64,1591.42,1616.55,1589.58z"/>
		<path class="st1" d="M1716.57,1646.42l33.17,9.31c97.51-66.98,156.41-183.85,143.2-309.54l-31.41-298.67
			c-1.22-11.63-8.44-21.12-18.21-25.91l31.08,295.57C1888.14,1447.94,1825.62,1575.81,1716.57,1646.42z"/>
		<path class="st2" d="M1575.16,1803.55c17.99-1.89,31.03-18,29.14-35.99l-7.44-70.72l264.7,74.26c4.11,1.15,8.25,1.47,12.26,1.05
			c12.95-1.36,24.38-10.43,28.11-23.73c4.88-17.41-5.27-35.48-22.68-40.37l-202.2-56.73c120.3-60.45,196.92-190.93,182.03-332.55
			l-31.41-298.67c-1.89-17.99-18-31.03-35.99-29.14c-17.99,1.89-31.03,18-29.14,35.99l31.41,298.67
			c14.27,135.7-76.06,258.67-205.78,288.6L1529,1051.52c-1.89-17.99-18-31.03-35.99-29.14s-31.03,18-29.14,35.99l75.29,716.05
			C1541.06,1792.4,1557.17,1805.44,1575.16,1803.55z"/>
	</g>
	<g>
		<polygon class="st0" points="3004.19,1644.83 3001.12,1382.31 2899,1624.17 		"/>
		<polygon class="st1" points="3001.12,1382.31 3000.52,1331.29 2878.55,1620.16 2899,1624.17 		"/>
		<path class="st1" d="M3053.45,1866.51c-2.24,0.03-4.49-0.16-6.72-0.46c3.82,10.18,12.71,17.86,23.57,19.99
			c2.11,0.41,4.29,0.62,6.52,0.59c17.52-0.2,31.57-14.58,31.36-32.1l-1.38-118.06c0-0.02,0-0.03,0-0.05l-6.96-594.31
			c0-0.04,0-0.08,0-0.12l0-0.3c-0.01-0.61-0.16-1.18-0.2-1.78c-0.1-1.44-0.19-2.87-0.48-4.27c-0.21-1.03-0.58-1.99-0.89-2.98
			c-0.3-0.95-0.54-1.93-0.92-2.85c-0.44-1.05-1.02-2.01-1.57-3c-0.44-0.8-0.82-1.63-1.34-2.4c-0.62-0.93-1.37-1.75-2.08-2.61
			c-0.32-0.39-0.65-0.76-0.97-1.15l8.18,698.65C3099.87,1845.03,3079.18,1866.21,3053.45,1866.51z"/>
		<path class="st1" d="M3005.3,1740.16l-163.83-32.17l-31.21,73.92c-8.18,19.37-28.51,30.68-49.12,27.95
			c2.95,7.9,8.94,14.64,17.32,18.18c2.06,0.87,4.15,1.51,6.26,1.92c14.44,2.83,29.37-4.72,35.32-18.81l35.93-85.11l149.5,29.36
			L3005.3,1740.16z"/>
		<path class="st2" d="M3070.9,1089.37c-0.62-0.93-1.37-1.76-2.08-2.61c-0.6-0.72-1.14-1.46-1.79-2.13
			c-0.87-0.88-1.86-1.61-2.83-2.38c-0.63-0.5-1.21-1.06-1.88-1.52c-1.43-0.97-2.98-1.77-4.57-2.5c-0.29-0.14-0.54-0.33-0.84-0.46
			c-0.02-0.01-0.05-0.01-0.07-0.02c-1.53-0.64-3.16-1.09-4.8-1.48c-0.45-0.11-0.9-0.31-1.36-0.4c-0.45-0.09-0.94-0.07-1.4-0.14
			c-1.68-0.26-3.36-0.46-5.03-0.44c-0.02,0-0.04-0.01-0.06,0c-0.27,0-0.52,0.08-0.78,0.09c-1.81,0.07-3.61,0.24-5.36,0.6
			c-0.73,0.15-1.41,0.43-2.12,0.63c-1.26,0.36-2.52,0.69-3.72,1.2c-0.8,0.34-1.53,0.8-2.29,1.2c-1.05,0.55-2.11,1.06-3.09,1.72
			c-0.71,0.48-1.33,1.07-2,1.6c-0.93,0.74-1.87,1.44-2.71,2.29c-0.67,0.68-1.23,1.45-1.84,2.19c-0.69,0.83-1.42,1.61-2.03,2.52
			c-0.79,1.17-1.41,2.46-2.04,3.73c-0.27,0.55-0.63,1.03-0.87,1.6l-0.12,0.28c-0.01,0.04-0.03,0.07-0.05,0.11l-231.17,547.51
			c-0.02,0.04-0.03,0.08-0.05,0.12l-45.91,108.74c-6.82,16.15,0.75,34.76,16.89,41.58c2.06,0.87,4.15,1.51,6.26,1.92
			c14.44,2.84,29.37-4.72,35.32-18.81l35.93-85.11l187.65,36.85l1.08,92.37c0.18,15.29,11.15,27.93,25.59,30.77
			c2.11,0.41,4.29,0.62,6.52,0.59c17.53-0.21,31.57-14.58,31.36-32.1l-1.38-118.06c0,0,0-0.04,0-0.06l-6.96-594.3
			c0-0.04,0-0.08,0-0.12l0-0.3c-0.01-0.61-0.16-1.18-0.2-1.78c-0.1-1.43-0.19-2.87-0.48-4.27c-0.21-1.03-0.58-1.99-0.89-2.98
			c-0.3-0.96-0.53-1.93-0.92-2.85c-0.44-1.05-1.02-2.01-1.57-3l0,0l0,0C3071.8,1090.96,3071.42,1090.13,3070.9,1089.37z
			 M3014.61,1259.55l4.72,403.47l-161.67-31.75L3014.61,1259.55z"/>
	</g>
</g>
<g>
	<path class="st1" d="M1319.51,2162.52c5.31,1.36,9.69,3.19,13.12,5.49c3.43,2.3,6.16,4.89,8.17,7.78c2.01,2.88,3.4,6,4.18,9.33
		c0.78,3.34,1.17,6.76,1.17,10.26c0,4.67-0.81,9.11-2.43,13.32c-1.62,4.21-4.26,7.92-7.92,11.13c-3.66,3.21-8.46,5.75-14.39,7.63
		c-5.93,1.88-13.21,2.82-21.83,2.82h-64.07c-0.65,0-1.13-0.14-1.46-0.44c-0.32-0.29-0.5-0.62-0.53-0.97
		c-0.03-0.36,0.1-0.7,0.39-1.02c0.29-0.32,0.73-0.55,1.31-0.68c0.78-0.13,2.01-0.4,3.69-0.82c1.68-0.42,3.39-1.18,5.1-2.28
		s3.22-2.59,4.52-4.47c1.3-1.88,1.94-4.34,1.94-7.39v-95.08c0-2.98-0.65-5.43-1.94-7.34c-1.3-1.91-2.81-3.4-4.52-4.47
		s-3.42-1.83-5.1-2.28c-1.69-0.45-2.92-0.74-3.69-0.88c-0.58-0.06-1.02-0.27-1.31-0.63c-0.29-0.36-0.42-0.71-0.39-1.07
		c0.03-0.36,0.21-0.68,0.53-0.97c0.32-0.29,0.81-0.44,1.46-0.44h67.67c6.81,0,12.49,0.81,17.06,2.43c4.57,1.62,8.26,3.84,11.08,6.66
		c2.82,2.82,4.83,6.12,6.03,9.92c1.2,3.79,1.8,7.83,1.8,12.1c0,2.98-0.33,5.96-0.97,8.94c-0.65,2.98-1.73,5.83-3.26,8.56
		c-1.52,2.72-3.57,5.25-6.12,7.58c-2.56,2.33-5.72,4.37-9.48,6.12c-0.39,0.2-0.55,0.41-0.49,0.63
		C1318.89,2162.21,1319.12,2162.39,1319.51,2162.52z M1282.56,2153.96c0,1.82,0.5,3.26,1.51,4.33c1,1.07,2.45,1.6,4.33,1.6
		c1.68,0,3.55-0.39,5.59-1.17c2.04-0.78,3.94-2.28,5.69-4.52c1.75-2.23,3.21-5.38,4.37-9.43c1.17-4.05,1.75-9.35,1.75-15.9
		c0-2.85-0.1-5.74-0.29-8.65c-0.2-2.92-0.71-5.55-1.56-7.92c-0.84-2.36-2.07-4.29-3.69-5.78c-1.62-1.49-3.86-2.23-6.71-2.23
		c-2.33,0-4.23,0.44-5.69,1.31c-1.46,0.87-2.58,2.2-3.35,3.98c-0.78,1.78-1.3,3.99-1.55,6.61c-0.26,2.62-0.39,5.69-0.39,9.19
		V2153.96z M1295.49,2224.74c2.53,0,4.65-0.53,6.37-1.6c1.72-1.07,3.14-2.48,4.28-4.23c1.13-1.75,2.01-3.71,2.62-5.88
		c0.62-2.17,1.05-4.36,1.31-6.56c0.26-2.2,0.42-4.31,0.49-6.32c0.06-2.01,0.1-3.73,0.1-5.15c0-4.93-0.39-9.09-1.17-12.49
		c-0.78-3.4-1.81-6.21-3.11-8.41c-1.3-2.2-2.74-3.91-4.33-5.1c-1.59-1.2-3.18-2.07-4.76-2.62c-1.59-0.55-3.11-0.88-4.57-0.97
		c-1.46-0.1-2.67-0.14-3.65-0.14c-2.01,0-3.6,0.53-4.76,1.6c-1.17,1.07-1.75,2.51-1.75,4.33v30.53c0,3.5,0.18,6.68,0.53,9.53
		c0.36,2.85,1.02,5.27,1.99,7.24s2.28,3.52,3.94,4.62C1290.68,2224.19,1292.83,2224.74,1295.49,2224.74z"/>
	<path class="st1" d="M1552.93,2227.07c0.52,0.13,0.87,0.36,1.07,0.68c0.2,0.32,0.26,0.68,0.2,1.07c-0.07,0.39-0.26,0.73-0.58,1.02
		c-0.32,0.29-0.78,0.44-1.36,0.44h-61.05c-0.45,0-0.83-0.13-1.12-0.39c-0.29-0.26-0.49-0.57-0.58-0.92c-0.1-0.36-0.03-0.7,0.2-1.02
		c0.23-0.32,0.66-0.59,1.31-0.78c0.65-0.19,1.8-0.55,3.45-1.07c1.65-0.52,3.24-1.38,4.76-2.58c1.52-1.2,2.7-2.8,3.55-4.81
		c0.84-2.01,0.74-4.57-0.29-7.68c-0.33-0.84-0.76-2.11-1.31-3.79c-0.55-1.68-1.15-3.55-1.8-5.59c-0.65-2.04-1.35-4.15-2.09-6.32
		c-0.75-2.17-1.41-4.18-1.99-6.03c-0.58-1.85-1.1-3.42-1.56-4.72c-0.45-1.29-0.71-2.07-0.78-2.33c-0.2-0.58-0.55-0.87-1.07-0.87
		h-41.9c-0.58,0-0.97,0.26-1.17,0.78c-0.26,0.78-0.67,2.07-1.21,3.89c-0.55,1.82-1.18,3.86-1.9,6.12c-0.71,2.27-1.44,4.65-2.19,7.15
		c-0.75,2.5-1.44,4.81-2.09,6.95c-0.65,2.14-1.21,4-1.7,5.59c-0.49,1.59-0.76,2.61-0.83,3.06c-0.52,2.4-0.41,4.34,0.34,5.83
		c0.74,1.49,1.77,2.68,3.06,3.55c1.3,0.87,2.69,1.51,4.18,1.89c1.49,0.39,2.72,0.71,3.69,0.97c0.58,0.13,0.97,0.37,1.17,0.73
		c0.19,0.36,0.26,0.71,0.19,1.07c-0.06,0.36-0.26,0.66-0.58,0.92c-0.32,0.26-0.71,0.39-1.17,0.39h-35.97
		c-0.52,0-0.92-0.13-1.21-0.39c-0.29-0.26-0.45-0.55-0.49-0.88c-0.03-0.32,0.06-0.66,0.29-1.02c0.23-0.36,0.6-0.6,1.12-0.73
		c1.69-0.45,3.34-1,4.96-1.65c1.62-0.65,3.13-1.47,4.52-2.48c1.39-1,2.66-2.22,3.79-3.64c1.13-1.43,2.09-3.11,2.87-5.06
		c0.39-0.97,1.23-3.29,2.53-6.95c1.29-3.66,2.88-8.17,4.76-13.51c1.88-5.35,3.95-11.26,6.22-17.74c2.27-6.48,4.55-13.04,6.85-19.69
		c2.3-6.64,4.55-13.13,6.76-19.45c2.2-6.32,4.15-11.94,5.83-16.87c1.68-4.93,3.06-8.91,4.13-11.96c1.07-3.04,1.63-4.66,1.7-4.86
		c0.26-0.71,0.58-1.27,0.97-1.65c0.39-0.39,1-0.65,1.85-0.78c1.42-0.26,3.08-0.61,4.96-1.07c1.88-0.45,3.81-0.94,5.78-1.46
		c1.98-0.52,3.94-1.08,5.88-1.7c1.94-0.62,3.73-1.28,5.35-2c1.1-0.52,1.9-0.65,2.38-0.39s0.89,0.78,1.21,1.55
		c0.06,0.2,0.6,1.82,1.6,4.86c1,3.05,2.33,7.01,3.99,11.91c1.65,4.89,3.52,10.49,5.59,16.77c2.07,6.29,4.23,12.77,6.46,19.45
		s4.46,13.32,6.66,19.93c2.2,6.61,4.23,12.67,6.08,18.18c1.85,5.51,3.42,10.26,4.72,14.24c1.3,3.99,2.2,6.69,2.72,8.12
		c0.97,2.79,2.12,5.2,3.45,7.24c1.33,2.04,2.79,3.79,4.38,5.25c1.59,1.46,3.26,2.61,5.01,3.45
		C1549.24,2226.16,1551.05,2226.75,1552.93,2227.07z M1451.53,2173.79c-0.32,0.84-0.06,1.26,0.78,1.26h37.04
		c0.78,0,1.04-0.39,0.78-1.17c-0.06-0.2-0.37-1.15-0.92-2.87c-0.55-1.72-1.28-3.92-2.19-6.61c-0.91-2.69-1.91-5.72-3.01-9.09
		c-1.1-3.37-2.24-6.79-3.4-10.26c-1.17-3.46-2.3-6.87-3.4-10.21c-1.1-3.34-2.09-6.32-2.97-8.95c-0.87-2.62-1.59-4.75-2.14-6.37
		c-0.55-1.62-0.83-2.46-0.83-2.53c-0.13-0.45-0.41-0.65-0.83-0.59c-0.42,0.07-0.7,0.29-0.83,0.68c-0.06,0.13-0.45,1.31-1.17,3.55
		c-0.71,2.24-1.62,5.09-2.72,8.56c-1.1,3.47-2.33,7.32-3.69,11.57s-2.71,8.44-4.03,12.59c-1.33,4.15-2.56,8.04-3.69,11.67
		C1453.17,2168.67,1452.24,2171.59,1451.53,2173.79z"/>
	<path class="st1" d="M1740.96,2217.93c0.78-0.26,1.51-0.21,2.19,0.14c0.68,0.36,0.86,1.15,0.53,2.38
		c-0.39,1.49-1.21,2.96-2.48,4.42c-1.26,1.46-2.85,2.81-4.76,4.03c-1.91,1.23-4.1,2.22-6.56,2.97c-2.46,0.74-5.12,1.12-7.97,1.12
		c-2.4,0-4.8-0.23-7.19-0.68c-2.4-0.46-4.68-1.23-6.85-2.34c-2.17-1.1-4.13-2.56-5.88-4.37c-1.75-1.81-3.21-4.08-4.37-6.8
		c-1.04-2.33-1.83-5.01-2.38-8.02c-0.55-3.01-0.99-6.46-1.31-10.35c-0.65-7.52-1.6-13.47-2.87-17.84c-1.26-4.37-2.72-7.68-4.37-9.92
		c-1.65-2.24-3.42-3.65-5.3-4.23c-1.88-0.58-3.69-0.87-5.44-0.87c-2.2,0-3.73,0.42-4.57,1.26c-0.84,0.84-1.26,2.3-1.26,4.37v38.99
		c0,3.05,0.65,5.51,1.94,7.39c1.3,1.88,2.8,3.37,4.52,4.47c1.72,1.1,3.42,1.86,5.1,2.28c1.69,0.42,2.92,0.7,3.69,0.82
		c0.58,0.13,1.02,0.36,1.31,0.68c0.29,0.32,0.42,0.66,0.39,1.02c-0.03,0.36-0.21,0.68-0.53,0.97c-0.32,0.29-0.81,0.44-1.46,0.44
		h-62.03c-0.65,0-1.13-0.14-1.46-0.44c-0.32-0.29-0.5-0.62-0.53-0.97c-0.03-0.36,0.1-0.7,0.39-1.02c0.29-0.32,0.73-0.55,1.31-0.68
		c0.78-0.13,2.01-0.4,3.69-0.82c1.68-0.42,3.39-1.18,5.1-2.28c1.72-1.1,3.22-2.59,4.52-4.47c1.3-1.88,1.94-4.34,1.94-7.39v-95.08
		c0-2.98-0.65-5.43-1.94-7.34c-1.3-1.91-2.81-3.4-4.52-4.47c-1.72-1.07-3.42-1.83-5.1-2.28c-1.69-0.45-2.92-0.74-3.69-0.88
		c-0.58-0.06-1.02-0.27-1.31-0.63c-0.29-0.36-0.42-0.71-0.39-1.07c0.03-0.36,0.21-0.68,0.53-0.97c0.32-0.29,0.81-0.44,1.46-0.44
		h59.89c3.69,0,7.34,0.03,10.94,0.09c3.6,0.07,7.1,0.39,10.5,0.97c3.4,0.59,6.71,1.56,9.92,2.92c3.21,1.36,6.3,3.34,9.29,5.93
		c2.4,2.14,4.36,4.68,5.88,7.63c1.52,2.95,2.59,6.04,3.21,9.28c0.62,3.24,0.74,6.55,0.39,9.92c-0.36,3.37-1.21,6.51-2.58,9.43
		c-2.33,5.19-5.38,9.19-9.14,12.01c-3.76,2.82-8.26,4.98-13.51,6.46c-0.52,0.13-0.81,0.34-0.87,0.63c-0.06,0.29,0.13,0.47,0.58,0.54
		c0.52,0.13,1.43,0.36,2.72,0.68c1.3,0.33,2.75,0.86,4.37,1.6c1.62,0.75,3.24,1.77,4.86,3.06c1.62,1.3,2.98,2.92,4.08,4.86
		c1.36,2.4,2.32,5.43,2.87,9.09c0.55,3.66,0.89,7.54,1.02,11.62c0.26,4.47,0.53,8.18,0.83,11.13c0.29,2.95,0.83,5.27,1.6,6.95
		c0.58,1.36,1.34,2.38,2.28,3.06c0.94,0.68,1.93,1.15,2.96,1.41c1.04,0.26,2.07,0.34,3.11,0.24
		C1739.27,2218.47,1740.18,2218.26,1740.96,2217.93z M1672.32,2161.93c1.68,0,3.55-0.06,5.59-0.19c2.04-0.13,4.08-0.5,6.13-1.12
		c2.04-0.61,4.02-1.59,5.93-2.92c1.91-1.32,3.6-3.21,5.06-5.64c1.46-2.43,2.62-5.49,3.5-9.19s1.31-8.23,1.31-13.61
		c0-4.67-0.36-8.57-1.07-11.71c-0.71-3.14-1.73-5.67-3.06-7.58c-1.33-1.91-2.95-3.29-4.86-4.13c-1.91-0.84-4.07-1.27-6.47-1.27
		c-2.14,0-4.08,0.28-5.83,0.83c-1.75,0.55-3.26,1.44-4.52,2.67s-2.24,2.79-2.92,4.66c-0.68,1.88-1.02,4.18-1.02,6.9v40.15
		C1670.08,2161.22,1670.83,2161.93,1672.32,2161.93z"/>
	<path class="st1" d="M1904.67,2162.52c5.31,1.36,9.69,3.19,13.12,5.49c3.44,2.3,6.16,4.89,8.17,7.78c2.01,2.88,3.4,6,4.18,9.33
		c0.77,3.34,1.16,6.76,1.16,10.26c0,4.67-0.81,9.11-2.43,13.32c-1.62,4.21-4.26,7.92-7.92,11.13c-3.66,3.21-8.46,5.75-14.39,7.63
		c-5.93,1.88-13.21,2.82-21.83,2.82h-64.07c-0.65,0-1.13-0.14-1.46-0.44c-0.32-0.29-0.5-0.62-0.53-0.97
		c-0.03-0.36,0.1-0.7,0.39-1.02c0.29-0.32,0.73-0.55,1.31-0.68c0.78-0.13,2.01-0.4,3.69-0.82c1.68-0.42,3.39-1.18,5.1-2.28
		s3.22-2.59,4.52-4.47c1.29-1.88,1.94-4.34,1.94-7.39v-95.08c0-2.98-0.65-5.43-1.94-7.34c-1.3-1.91-2.81-3.4-4.52-4.47
		s-3.42-1.83-5.1-2.28c-1.69-0.45-2.92-0.74-3.69-0.88c-0.58-0.06-1.02-0.27-1.31-0.63c-0.29-0.36-0.42-0.71-0.39-1.07
		c0.03-0.36,0.21-0.68,0.53-0.97c0.32-0.29,0.81-0.44,1.46-0.44h67.67c6.81,0,12.49,0.81,17.06,2.43c4.57,1.62,8.27,3.84,11.09,6.66
		c2.81,2.82,4.83,6.12,6.02,9.92c1.2,3.79,1.8,7.83,1.8,12.1c0,2.98-0.33,5.96-0.97,8.94c-0.65,2.98-1.74,5.83-3.26,8.56
		s-3.56,5.25-6.12,7.58c-2.56,2.33-5.72,4.37-9.48,6.12c-0.39,0.2-0.55,0.41-0.49,0.63
		C1904.06,2162.21,1904.29,2162.39,1904.67,2162.52z M1867.73,2153.96c0,1.82,0.5,3.26,1.51,4.33c1,1.07,2.45,1.6,4.33,1.6
		c1.68,0,3.55-0.39,5.59-1.17c2.04-0.78,3.94-2.28,5.69-4.52c1.75-2.23,3.21-5.38,4.37-9.43c1.17-4.05,1.75-9.35,1.75-15.9
		c0-2.85-0.1-5.74-0.29-8.65c-0.2-2.92-0.71-5.55-1.56-7.92c-0.84-2.36-2.07-4.29-3.69-5.78c-1.62-1.49-3.86-2.23-6.71-2.23
		c-2.33,0-4.23,0.44-5.69,1.31c-1.46,0.87-2.58,2.2-3.35,3.98c-0.78,1.78-1.3,3.99-1.55,6.61c-0.26,2.62-0.39,5.69-0.39,9.19
		V2153.96z M1880.66,2224.74c2.53,0,4.65-0.53,6.37-1.6c1.72-1.07,3.14-2.48,4.28-4.23c1.13-1.75,2.01-3.71,2.62-5.88
		c0.62-2.17,1.05-4.36,1.31-6.56c0.26-2.2,0.42-4.31,0.49-6.32c0.06-2.01,0.1-3.73,0.1-5.15c0-4.93-0.39-9.09-1.17-12.49
		c-0.78-3.4-1.81-6.21-3.11-8.41c-1.3-2.2-2.74-3.91-4.33-5.1c-1.59-1.2-3.18-2.07-4.76-2.62c-1.59-0.55-3.11-0.88-4.57-0.97
		c-1.46-0.1-2.67-0.14-3.65-0.14c-2.01,0-3.6,0.53-4.76,1.6c-1.17,1.07-1.75,2.51-1.75,4.33v30.53c0,3.5,0.18,6.68,0.53,9.53
		c0.36,2.85,1.02,5.27,1.99,7.24s2.28,3.52,3.94,4.62C1875.85,2224.19,1878,2224.74,1880.66,2224.74z"/>
	<path class="st1" d="M2109.32,2202.28c0.39-1.04,1-1.51,1.85-1.41c0.84,0.1,1.26,0.66,1.26,1.7v25.86c0,1.23-0.68,1.85-2.04,1.85
		h-103.25c-0.65,0-1.14-0.14-1.46-0.44c-0.32-0.29-0.5-0.62-0.53-0.97c-0.03-0.36,0.1-0.7,0.39-1.02c0.29-0.32,0.73-0.55,1.31-0.68
		c0.78-0.13,2.01-0.4,3.69-0.82c1.68-0.42,3.39-1.18,5.1-2.28c1.72-1.1,3.22-2.59,4.52-4.47c1.3-1.88,1.94-4.34,1.94-7.39v-95.08
		c0-2.98-0.65-5.43-1.94-7.34c-1.3-1.91-2.8-3.4-4.52-4.47c-1.72-1.07-3.42-1.83-5.1-2.28c-1.69-0.45-2.92-0.74-3.69-0.88
		c-0.58-0.06-1.02-0.27-1.31-0.63c-0.29-0.36-0.42-0.71-0.39-1.07c0.03-0.36,0.21-0.68,0.53-0.97c0.32-0.29,0.81-0.44,1.46-0.44
		h94.79c1.36,0,2.04,0.62,2.04,1.85v20.22c0,0.97-0.39,1.51-1.17,1.6c-0.78,0.1-1.43-0.31-1.94-1.21c-0.39-0.84-1.16-2.19-2.33-4.03
		c-1.17-1.85-2.79-3.73-4.86-5.64c-2.07-1.91-4.67-3.6-7.78-5.05c-3.11-1.46-6.84-2.19-11.18-2.19c-3.05,0-5.83,0.26-8.36,0.78
		c-2.53,0.52-4.68,1.34-6.46,2.48c-1.78,1.14-3.18,2.59-4.18,4.38c-1.01,1.78-1.51,3.94-1.51,6.46v41.03v-1.46
		c0,0.39,0.14,0.73,0.44,1.02c0.29,0.29,0.63,0.44,1.02,0.44h12.44c2.92,0,5.3-0.59,7.15-1.75c1.85-1.17,3.3-2.53,4.37-4.08
		c1.07-1.55,1.83-3.09,2.28-4.62c0.45-1.52,0.75-2.68,0.87-3.45c0.07-0.52,0.28-0.89,0.63-1.12s0.71-0.32,1.07-0.29
		c0.36,0.03,0.68,0.2,0.97,0.49c0.29,0.29,0.44,0.7,0.44,1.21v33.05c0,0.52-0.14,0.93-0.44,1.21c-0.29,0.29-0.62,0.46-0.97,0.49
		c-0.36,0.03-0.71-0.06-1.07-0.29c-0.36-0.23-0.57-0.6-0.63-1.12c-0.13-0.78-0.42-1.93-0.87-3.45c-0.45-1.52-1.21-3.06-2.28-4.62
		c-1.07-1.55-2.53-2.92-4.37-4.08c-1.85-1.16-4.23-1.75-7.15-1.75h-12.44c-0.39,0-0.73,0.15-1.02,0.44
		c-0.29,0.29-0.44,0.63-0.44,1.02v-1.46v44.82c0,4.6,2.01,8.1,6.03,10.5c4.02,2.4,9.72,3.6,17.11,3.6c3.5,0,6.69-0.47,9.58-1.41
		c2.88-0.94,5.48-2.12,7.78-3.55c2.3-1.43,4.31-3.03,6.03-4.81c1.72-1.78,3.18-3.48,4.37-5.1c1.2-1.62,2.14-3.09,2.82-4.42
		C2108.59,2203.82,2109.07,2202.86,2109.32,2202.28z"/>
	<path class="st1" d="M2318.44,2227.07c0.52,0.13,0.87,0.36,1.07,0.68c0.2,0.32,0.26,0.68,0.2,1.07c-0.07,0.39-0.26,0.73-0.58,1.02
		c-0.33,0.29-0.78,0.44-1.36,0.44h-61.06c-0.45,0-0.82-0.13-1.12-0.39c-0.29-0.26-0.48-0.57-0.58-0.92c-0.1-0.36-0.03-0.7,0.2-1.02
		c0.22-0.32,0.66-0.59,1.31-0.78c0.65-0.19,1.8-0.55,3.45-1.07c1.65-0.52,3.24-1.38,4.76-2.58c1.52-1.2,2.71-2.8,3.55-4.81
		c0.84-2.01,0.74-4.57-0.29-7.68c-0.32-0.84-0.76-2.11-1.31-3.79c-0.55-1.68-1.15-3.55-1.8-5.59c-0.65-2.04-1.34-4.15-2.09-6.32
		c-0.75-2.17-1.41-4.18-1.99-6.03c-0.59-1.85-1.1-3.42-1.55-4.72c-0.46-1.29-0.71-2.07-0.78-2.33c-0.19-0.58-0.55-0.87-1.07-0.87
		h-41.9c-0.59,0-0.97,0.26-1.17,0.78c-0.26,0.78-0.66,2.07-1.21,3.89c-0.55,1.82-1.18,3.86-1.9,6.12c-0.71,2.27-1.44,4.65-2.19,7.15
		s-1.44,4.81-2.09,6.95c-0.65,2.14-1.21,4-1.7,5.59c-0.49,1.59-0.76,2.61-0.83,3.06c-0.52,2.4-0.41,4.34,0.34,5.83
		c0.75,1.49,1.77,2.68,3.06,3.55c1.3,0.87,2.69,1.51,4.18,1.89c1.49,0.39,2.72,0.71,3.69,0.97c0.58,0.13,0.97,0.37,1.16,0.73
		c0.2,0.36,0.26,0.71,0.2,1.07c-0.07,0.36-0.26,0.66-0.58,0.92c-0.33,0.26-0.71,0.39-1.17,0.39h-35.97c-0.52,0-0.93-0.13-1.22-0.39
		c-0.29-0.26-0.45-0.55-0.48-0.88c-0.03-0.32,0.07-0.66,0.29-1.02c0.23-0.36,0.6-0.6,1.12-0.73c1.69-0.45,3.34-1,4.96-1.65
		c1.62-0.65,3.13-1.47,4.52-2.48c1.39-1,2.66-2.22,3.79-3.64c1.13-1.43,2.09-3.11,2.87-5.06c0.39-0.97,1.23-3.29,2.53-6.95
		c1.3-3.66,2.89-8.17,4.76-13.51c1.88-5.35,3.95-11.26,6.22-17.74c2.27-6.48,4.55-13.04,6.85-19.69c2.3-6.64,4.55-13.13,6.76-19.45
		c2.2-6.32,4.15-11.94,5.83-16.87c1.68-4.93,3.06-8.91,4.13-11.96c1.07-3.04,1.64-4.66,1.7-4.86c0.26-0.71,0.59-1.27,0.97-1.65
		c0.39-0.39,1-0.65,1.85-0.78c1.43-0.26,3.08-0.61,4.96-1.07c1.88-0.45,3.8-0.94,5.78-1.46c1.98-0.52,3.94-1.08,5.88-1.7
		c1.94-0.62,3.73-1.28,5.35-2c1.1-0.52,1.9-0.65,2.38-0.39s0.89,0.78,1.21,1.55c0.06,0.2,0.6,1.82,1.6,4.86
		c1,3.05,2.33,7.01,3.98,11.91c1.66,4.89,3.52,10.49,5.59,16.77c2.07,6.29,4.23,12.77,6.46,19.45c2.24,6.67,4.46,13.32,6.66,19.93
		c2.2,6.61,4.23,12.67,6.08,18.18c1.85,5.51,3.42,10.26,4.71,14.24c1.3,3.99,2.2,6.69,2.72,8.12c0.97,2.79,2.12,5.2,3.45,7.24
		c1.33,2.04,2.79,3.79,4.37,5.25c1.59,1.46,3.26,2.61,5.01,3.45C2314.75,2226.16,2316.56,2226.75,2318.44,2227.07z M2217.04,2173.79
		c-0.32,0.84-0.07,1.26,0.78,1.26h37.04c0.78,0,1.04-0.39,0.78-1.17c-0.07-0.2-0.37-1.15-0.93-2.87s-1.28-3.92-2.19-6.61
		c-0.91-2.69-1.91-5.72-3.01-9.09c-1.1-3.37-2.23-6.79-3.4-10.26c-1.17-3.46-2.3-6.87-3.4-10.21c-1.1-3.34-2.09-6.32-2.96-8.95
		c-0.87-2.62-1.59-4.75-2.14-6.37c-0.55-1.62-0.83-2.46-0.83-2.53c-0.13-0.45-0.41-0.65-0.82-0.59c-0.42,0.07-0.7,0.29-0.83,0.68
		c-0.07,0.13-0.45,1.31-1.17,3.55c-0.71,2.24-1.62,5.09-2.72,8.56s-2.33,7.32-3.69,11.57c-1.36,4.25-2.71,8.44-4.03,12.59
		c-1.33,4.15-2.56,8.04-3.69,11.67C2218.68,2168.67,2217.75,2171.59,2217.04,2173.79z"/>
	<path class="st1" d="M2506.47,2217.93c0.78-0.26,1.51-0.21,2.19,0.14c0.68,0.36,0.86,1.15,0.53,2.38
		c-0.39,1.49-1.21,2.96-2.48,4.42c-1.27,1.46-2.85,2.81-4.76,4.03c-1.91,1.23-4.1,2.22-6.56,2.97c-2.46,0.74-5.12,1.12-7.97,1.12
		c-2.4,0-4.8-0.23-7.19-0.68c-2.4-0.46-4.69-1.23-6.85-2.34c-2.17-1.1-4.13-2.56-5.88-4.37c-1.75-1.81-3.21-4.08-4.38-6.8
		c-1.04-2.33-1.83-5.01-2.38-8.02c-0.55-3.01-0.99-6.46-1.31-10.35c-0.65-7.52-1.6-13.47-2.87-17.84c-1.26-4.37-2.72-7.68-4.37-9.92
		c-1.65-2.24-3.42-3.65-5.3-4.23c-1.88-0.58-3.69-0.87-5.44-0.87c-2.2,0-3.73,0.42-4.57,1.26c-0.84,0.84-1.26,2.3-1.26,4.37v38.99
		c0,3.05,0.65,5.51,1.94,7.39c1.29,1.88,2.8,3.37,4.52,4.47s3.42,1.86,5.1,2.28c1.68,0.42,2.92,0.7,3.69,0.82
		c0.58,0.13,1.02,0.36,1.31,0.68c0.29,0.32,0.42,0.66,0.39,1.02c-0.03,0.36-0.21,0.68-0.53,0.97c-0.33,0.29-0.81,0.44-1.46,0.44
		h-62.02c-0.65,0-1.14-0.14-1.46-0.44c-0.32-0.29-0.5-0.62-0.53-0.97c-0.03-0.36,0.1-0.7,0.39-1.02c0.29-0.32,0.73-0.55,1.31-0.68
		c0.78-0.13,2.01-0.4,3.69-0.82c1.68-0.42,3.39-1.18,5.1-2.28c1.72-1.1,3.22-2.59,4.52-4.47s1.94-4.34,1.94-7.39v-95.08
		c0-2.98-0.65-5.43-1.94-7.34c-1.3-1.91-2.8-3.4-4.52-4.47c-1.72-1.07-3.42-1.83-5.1-2.28c-1.69-0.45-2.92-0.74-3.69-0.88
		c-0.58-0.06-1.02-0.27-1.31-0.63c-0.29-0.36-0.42-0.71-0.39-1.07c0.03-0.36,0.21-0.68,0.53-0.97c0.32-0.29,0.81-0.44,1.46-0.44
		h59.89c3.69,0,7.34,0.03,10.94,0.09c3.6,0.07,7.1,0.39,10.5,0.97c3.4,0.59,6.71,1.56,9.92,2.92c3.21,1.36,6.3,3.34,9.28,5.93
		c2.4,2.14,4.36,4.68,5.88,7.63c1.52,2.95,2.59,6.04,3.21,9.28c0.62,3.24,0.75,6.55,0.39,9.92c-0.36,3.37-1.21,6.51-2.58,9.43
		c-2.33,5.19-5.38,9.19-9.14,12.01c-3.76,2.82-8.26,4.98-13.51,6.46c-0.52,0.13-0.81,0.34-0.88,0.63c-0.07,0.29,0.13,0.47,0.59,0.54
		c0.52,0.13,1.42,0.36,2.72,0.68c1.29,0.33,2.75,0.86,4.37,1.6c1.62,0.75,3.24,1.77,4.86,3.06c1.62,1.3,2.98,2.92,4.08,4.86
		c1.36,2.4,2.32,5.43,2.87,9.09c0.55,3.66,0.89,7.54,1.02,11.62c0.26,4.47,0.53,8.18,0.82,11.13c0.29,2.95,0.83,5.27,1.6,6.95
		c0.58,1.36,1.34,2.38,2.28,3.06c0.94,0.68,1.93,1.15,2.96,1.41c1.04,0.26,2.07,0.34,3.11,0.24
		C2504.78,2218.47,2505.69,2218.26,2506.47,2217.93z M2437.83,2161.93c1.69,0,3.55-0.06,5.59-0.19c2.04-0.13,4.08-0.5,6.12-1.12
		c2.04-0.61,4.02-1.59,5.93-2.92c1.91-1.32,3.6-3.21,5.06-5.64c1.46-2.43,2.62-5.49,3.5-9.19c0.87-3.69,1.31-8.23,1.31-13.61
		c0-4.67-0.36-8.57-1.07-11.71c-0.71-3.14-1.73-5.67-3.06-7.58c-1.33-1.91-2.95-3.29-4.86-4.13c-1.91-0.84-4.07-1.27-6.46-1.27
		c-2.14,0-4.08,0.28-5.83,0.83c-1.75,0.55-3.25,1.44-4.52,2.67c-1.26,1.23-2.24,2.79-2.92,4.66c-0.68,1.88-1.02,4.18-1.02,6.9v40.15
		C2435.59,2161.22,2436.34,2161.93,2437.83,2161.93z"/>
	<path class="st1" d="M2648.51,2227.17c0.58,0.13,1.02,0.36,1.31,0.68c0.29,0.32,0.42,0.66,0.39,1.02
		c-0.03,0.36-0.21,0.68-0.54,0.97c-0.33,0.29-0.81,0.44-1.46,0.44h-62.02c-0.65,0-1.14-0.14-1.46-0.44s-0.5-0.62-0.53-0.97
		c-0.03-0.36,0.1-0.7,0.39-1.02c0.29-0.32,0.73-0.55,1.31-0.68c0.78-0.13,2.01-0.4,3.69-0.82c1.68-0.42,3.39-1.18,5.1-2.28
		c1.72-1.1,3.22-2.59,4.52-4.47c1.3-1.88,1.94-4.34,1.94-7.39v-95.08c0-2.98-0.65-5.43-1.94-7.34c-1.3-1.91-2.8-3.4-4.52-4.47
		c-1.72-1.07-3.42-1.83-5.1-2.28c-1.69-0.45-2.92-0.74-3.69-0.88c-0.58-0.06-1.02-0.27-1.31-0.63c-0.29-0.36-0.42-0.71-0.39-1.07
		c0.03-0.36,0.21-0.68,0.53-0.97c0.32-0.29,0.81-0.44,1.46-0.44h62.02c0.65,0,1.13,0.14,1.46,0.44c0.32,0.29,0.5,0.62,0.54,0.97
		c0.03,0.36-0.1,0.71-0.39,1.07c-0.29,0.36-0.73,0.57-1.31,0.63c-0.78,0.13-2.01,0.42-3.69,0.88c-1.69,0.46-3.39,1.21-5.1,2.28
		s-3.23,2.56-4.52,4.47c-1.3,1.91-1.94,4.36-1.94,7.34v95.08c0,3.05,0.65,5.51,1.94,7.39c1.29,1.88,2.8,3.37,4.52,4.47
		s3.42,1.86,5.1,2.28C2646.5,2226.76,2647.73,2227.04,2648.51,2227.17z"/>
	<path class="st1" d="M2857.04,2227.07c0.52,0.13,0.87,0.36,1.07,0.68c0.2,0.32,0.26,0.68,0.2,1.07c-0.07,0.39-0.26,0.73-0.58,1.02
		c-0.33,0.29-0.78,0.44-1.36,0.44h-61.06c-0.45,0-0.82-0.13-1.12-0.39c-0.29-0.26-0.48-0.57-0.58-0.92c-0.1-0.36-0.03-0.7,0.2-1.02
		c0.22-0.32,0.66-0.59,1.31-0.78c0.65-0.19,1.8-0.55,3.45-1.07s3.24-1.38,4.76-2.58s2.71-2.8,3.55-4.81
		c0.84-2.01,0.74-4.57-0.29-7.68c-0.32-0.84-0.76-2.11-1.31-3.79c-0.55-1.68-1.15-3.55-1.8-5.59c-0.65-2.04-1.34-4.15-2.09-6.32
		c-0.75-2.17-1.41-4.18-1.99-6.03c-0.59-1.85-1.1-3.42-1.55-4.72c-0.46-1.29-0.71-2.07-0.78-2.33c-0.19-0.58-0.55-0.87-1.07-0.87
		h-41.9c-0.59,0-0.97,0.26-1.17,0.78c-0.26,0.78-0.66,2.07-1.21,3.89s-1.18,3.86-1.9,6.12c-0.71,2.27-1.44,4.65-2.19,7.15
		s-1.44,4.81-2.09,6.95c-0.65,2.14-1.21,4-1.7,5.59c-0.49,1.59-0.76,2.61-0.83,3.06c-0.52,2.4-0.41,4.34,0.34,5.83
		c0.75,1.49,1.77,2.68,3.06,3.55c1.3,0.87,2.69,1.51,4.18,1.89c1.49,0.39,2.72,0.71,3.69,0.97c0.58,0.13,0.97,0.37,1.16,0.73
		c0.2,0.36,0.26,0.71,0.2,1.07c-0.07,0.36-0.26,0.66-0.58,0.92c-0.33,0.26-0.71,0.39-1.17,0.39h-35.97c-0.52,0-0.93-0.13-1.22-0.39
		c-0.29-0.26-0.45-0.55-0.48-0.88c-0.03-0.32,0.07-0.66,0.29-1.02c0.23-0.36,0.6-0.6,1.12-0.73c1.69-0.45,3.34-1,4.96-1.65
		c1.62-0.65,3.13-1.47,4.52-2.48c1.39-1,2.66-2.22,3.79-3.64c1.13-1.43,2.09-3.11,2.87-5.06c0.39-0.97,1.23-3.29,2.53-6.95
		c1.3-3.66,2.89-8.17,4.76-13.51c1.88-5.35,3.95-11.26,6.22-17.74c2.27-6.48,4.55-13.04,6.85-19.69c2.3-6.64,4.55-13.13,6.76-19.45
		c2.2-6.32,4.15-11.94,5.83-16.87c1.68-4.93,3.06-8.91,4.13-11.96c1.07-3.04,1.64-4.66,1.7-4.86c0.26-0.71,0.59-1.27,0.97-1.65
		c0.39-0.39,1-0.65,1.85-0.78c1.43-0.26,3.08-0.61,4.96-1.07c1.88-0.45,3.8-0.94,5.78-1.46c1.98-0.52,3.94-1.08,5.88-1.7
		c1.94-0.62,3.73-1.28,5.35-2c1.1-0.52,1.9-0.65,2.38-0.39s0.89,0.78,1.21,1.55c0.06,0.2,0.6,1.82,1.6,4.86
		c1,3.05,2.33,7.01,3.98,11.91c1.66,4.89,3.52,10.49,5.59,16.77c2.07,6.29,4.23,12.77,6.46,19.45c2.24,6.67,4.46,13.32,6.66,19.93
		c2.2,6.61,4.23,12.67,6.08,18.18c1.85,5.51,3.42,10.26,4.71,14.24c1.3,3.99,2.2,6.69,2.72,8.12c0.97,2.79,2.12,5.2,3.45,7.24
		c1.33,2.04,2.79,3.79,4.37,5.25c1.59,1.46,3.26,2.61,5.01,3.45C2853.35,2226.16,2855.17,2226.75,2857.04,2227.07z M2755.64,2173.79
		c-0.32,0.84-0.07,1.26,0.78,1.26h37.04c0.78,0,1.04-0.39,0.78-1.17c-0.07-0.2-0.37-1.15-0.93-2.87s-1.28-3.92-2.19-6.61
		c-0.91-2.69-1.91-5.72-3.01-9.09c-1.1-3.37-2.23-6.79-3.4-10.26c-1.17-3.46-2.3-6.87-3.4-10.21c-1.1-3.34-2.09-6.32-2.96-8.95
		c-0.87-2.62-1.59-4.75-2.14-6.37c-0.55-1.62-0.83-2.46-0.83-2.53c-0.13-0.45-0.41-0.65-0.82-0.59c-0.42,0.07-0.7,0.29-0.83,0.68
		c-0.07,0.13-0.45,1.31-1.17,3.55c-0.71,2.24-1.62,5.09-2.72,8.56c-1.1,3.47-2.33,7.32-3.69,11.57c-1.36,4.25-2.71,8.44-4.03,12.59
		c-1.33,4.15-2.56,8.04-3.69,11.67C2757.28,2168.67,2756.35,2171.59,2755.64,2173.79z"/>
</g>
</svg>
